# xmcd
#
# Track frame offsets:
#	150
#	26110
#	57411
#	83671
#	100033
#	121546
#	151027
#	166960
#	186790
#	217879
#	251182
#	272870
#	301468
#	324564
#
# Disc length: 4578 seconds
#
# Revision: 2
# Processed by: cddbd v1.5.2PL0 Copyright (c) Steve Scherf et al.
# Submitted via: audiograbber 1.83.01
#
DISCID=b411e00e
DTITLE=Ñáîðíèê - Time Blues  Vol.18
DYEAR=2003
DGENRE=Blues
TTITLE0=Corey Stevens - Real Love
TTITLE1=Joe Nadeau - I'll Help You Pack
TTITLE2=Amund Maarad - Ten Days
TTITLE3=The Groove Hogs - Love Fever
TTITLE4=Todd Wolfe - One Lost Love
TTITLE5=Jimbo Ross - Help Me Through The Day
TTITLE6=Luther Kent - Twenty-One And Lega!
TTITLE7=Henry Ðàrilla - Inventario De Amor
TTITLE8=Danny Click - Blues Are Too Good For You
TTITLE9=Joe Bonamassa - Blues Deluxe
TTITLE10=Walter Trout And The Radicals - Cry If You Want Òå
TTITLE11=Chris Duarte Group - One More Cup
TTITLE12=David Maxwell and Pinetop Perkins - Thank You Pinetop Perkins
TTITLE13=Gail Wynters - Seek And Ye Shall Find
EXTD=
EXTT0=
EXTT1=
EXTT2=
EXTT3=
EXTT4=
EXTT5=
EXTT6=
EXTT7=
EXTT8=
EXTT9=
EXTT10=
EXTT11=
EXTT12=
EXTT13=
PLAYORDER=
